<svg xmlns="http://www.w3.org/2000/svg" width="700" height="240" viewBox="0 0 700 240">
<rect width="100%" height="100%" fill="#ffffff"/>
<text x="350.0" y="12" font-size="12" font-family="sans-serif" text-anchor="middle" font-weight="bold">GPS&#x27;siz konum hatası</text>
<line x1="46" y1="214.0" x2="688" y2="214.0" stroke="#e0e0e0" stroke-width="0.5"/>
<text x="42" y="217.0" font-size="9" font-family="sans-serif" text-anchor="end">0.00</text>
<line x1="46" y1="164.0" x2="688" y2="164.0" stroke="#e0e0e0" stroke-width="0.5"/>
<text x="42" y="167.0" font-size="9" font-family="sans-serif" text-anchor="end">0.33</text>
<line x1="46" y1="114.0" x2="688" y2="114.0" stroke="#e0e0e0" stroke-width="0.5"/>
<text x="42" y="117.0" font-size="9" font-family="sans-serif" text-anchor="end">0.65</text>
<line x1="46" y1="64.0" x2="688" y2="64.0" stroke="#e0e0e0" stroke-width="0.5"/>
<text x="42" y="67.0" font-size="9" font-family="sans-serif" text-anchor="end">0.98</text>
<line x1="46" y1="14.0" x2="688" y2="14.0" stroke="#e0e0e0" stroke-width="0.5"/>
<text x="42" y="17.0" font-size="9" font-family="sans-serif" text-anchor="end">1.30</text>
<line x1="46" y1="14" x2="46" y2="214" stroke="#555" stroke-width="1"/>
<line x1="46" y1="214" x2="688" y2="214" stroke="#555" stroke-width="1"/>
<text x="10" y="22" font-size="9" font-family="sans-serif" fill="#666">hata (m)</text>
<polyline points="46.9,211.7 47.9,214.0 48.8,213.8 49.8,212.9 50.7,211.1 51.6,212.2 52.6,212.3 53.5,212.0 54.4,210.8 55.4,210.9 56.3,212.3 57.3,210.5 58.2,206.9 59.1,204.0 60.1,210.5 61.0,209.2 62.0,205.7 62.9,206.6 63.8,204.5 64.8,199.5 65.7,197.2 66.6,195.9 67.6,199.2 68.5,202.2 69.5,204.5 70.4,201.7 71.3,199.4 72.3,196.6 73.2,194.6 74.2,196.2 75.1,196.3 76.0,197.4 77.0,200.3 77.9,200.5 78.9,204.0 79.8,202.5 80.7,199.9 81.7,198.8 82.6,197.1 83.5,197.9 84.5,196.6 85.4,194.6 86.4,195.4 87.3,197.1 88.2,195.6 89.2,197.1 90.1,194.5 91.1,194.6 92.0,193.1 92.9,192.6 93.9,196.0 94.8,200.5 95.7,198.6 96.7,198.0 97.6,196.0 98.6,193.2 99.5,192.9 100.4,196.8 101.4,195.9 102.3,195.7 103.3,197.6 104.2,199.9 105.1,198.6 106.1,199.9 107.0,199.5 107.9,202.0 108.9,202.6 109.8,205.4 110.8,201.7 111.7,202.0 112.6,198.9 113.6,198.0 114.5,196.3 115.5,200.2 116.4,200.3 117.3,199.1 118.3,199.1 119.2,197.2 120.1,199.4 121.1,195.6 122.0,196.5 123.0,201.4 123.9,199.9 124.8,199.7 125.8,199.7 126.7,203.4 127.7,203.1 128.6,204.2 129.5,207.2 130.5,209.4 131.4,207.7 132.4,205.7 133.3,205.2 134.2,207.7 135.2,208.5 136.1,209.8 137.0,211.2 138.0,210.8 138.9,210.2 139.9,211.1 140.8,210.8 141.7,208.9 142.7,208.5 143.6,206.2 144.6,203.1 145.5,202.6 146.4,203.5 147.4,202.9 148.3,203.1 149.2,204.0 150.2,204.3 151.1,203.9 152.1,206.3 153.0,204.6 153.9,202.8 154.9,205.9 155.8,205.9 156.8,208.6 157.7,208.6 158.6,212.0 159.6,212.3 160.5,212.9 161.4,212.3 162.4,210.5 163.3,207.4 164.3,206.6 165.2,208.5 166.1,208.9 167.1,208.0 168.0,211.7 169.0,209.7 169.9,209.8 170.8,209.4 171.8,208.6 172.7,208.2 173.6,202.8 174.6,201.5 175.5,200.3 176.5,199.7 177.4,199.2 178.3,198.2 179.3,199.4 180.2,199.4 181.2,198.2 182.1,194.8 183.0,192.9 184.0,192.5 184.9,194.2 185.9,194.6 186.8,196.8 187.7,194.5 188.7,194.2 189.6,198.3 190.5,194.9 191.5,195.6 192.4,195.9 193.4,191.7 194.3,185.9 195.2,189.9 196.2,187.4 197.1,188.0 198.1,184.6 199.0,185.1 199.9,185.4 200.9,184.9 201.8,186.8 202.7,185.9 203.7,184.9 204.6,183.6 205.6,182.2 206.5,180.9 207.4,177.6 208.4,177.3 209.3,175.1 210.3,177.0 211.2,176.0 212.1,173.7 213.1,174.0 214.0,173.6 214.9,171.0 215.9,172.2 216.8,171.4 217.8,170.6 218.7,171.1 219.6,169.6 220.6,169.0 221.5,167.7 222.5,161.4 223.4,161.6 224.3,162.0 225.3,162.2 226.2,161.3 227.1,163.7 228.1,162.0 229.0,165.4 230.0,164.3 230.9,161.7 231.8,161.1 232.8,158.2 233.7,159.9 234.7,160.0 235.6,158.0 236.5,157.4 237.5,158.8 238.4,158.2 239.4,157.1 240.3,152.2 241.2,153.9 242.2,149.9 243.1,149.6 244.0,148.1 245.0,148.4 245.9,143.4 246.9,142.4 247.8,143.0 248.7,145.3 249.7,144.8 250.6,143.1 251.6,141.6 252.5,137.8 253.4,136.5 254.4,135.8 255.3,131.8 256.2,131.4 257.2,132.2 258.1,131.0 259.1,128.2 260.0,127.6 260.9,126.7 261.9,125.8 262.8,122.5 263.8,123.8 264.7,121.9 265.6,119.6 266.6,116.7 267.5,114.8 268.4,111.2 269.4,111.3 270.3,108.4 271.3,107.8 272.2,105.9 273.1,104.4 274.1,102.5 275.0,99.6 276.0,98.2 276.9,96.6 277.8,94.2 278.8,92.7 279.7,91.6 280.6,89.6 281.6,88.6 282.5,86.1 283.5,85.0 284.4,83.9 285.3,82.4 286.3,81.8 287.2,78.6 288.2,77.2 289.1,74.1 290.0,73.0 291.0,70.9 291.9,70.3 292.9,68.1 293.8,66.9 294.7,65.3 295.7,64.7 296.6,63.3 297.5,62.9 298.5,61.7 299.4,60.3 300.4,58.7 301.3,58.1 302.2,56.7 303.2,56.1 304.1,55.2 305.1,54.9 306.0,54.1 306.9,53.5 307.9,52.7 308.8,51.8 309.7,51.0 310.7,50.4 311.6,50.0 312.6,49.7 313.5,49.0 314.4,48.6 315.4,48.1 316.3,47.2 317.3,46.4 318.2,46.0 319.1,45.1 320.1,44.4 321.0,43.8 321.9,43.2 322.9,42.6 323.8,42.4 324.8,42.1 325.7,42.0 326.6,41.7 327.6,41.4 328.5,40.9 329.5,40.3 330.4,39.7 331.3,39.1 332.3,38.1 333.2,37.5 334.1,36.4 335.1,36.0 336.0,35.8 337.0,35.2 337.9,34.8 338.8,34.4 339.8,33.7 340.7,33.4 341.7,33.1 342.6,32.8 343.5,31.8 344.5,31.1 345.4,30.8 346.4,30.3 347.3,29.7 348.2,29.7 349.2,29.5 350.1,29.1 351.0,28.8 352.0,28.0 352.9,27.2 353.9,27.4 354.8,27.1 355.7,26.6 356.7,26.6 357.6,26.8 358.6,26.5 359.5,26.5 360.4,26.5 361.4,26.5 362.3,26.5 363.2,26.6 364.2,26.5 365.1,26.6 366.1,26.8 367.0,26.8 367.9,27.2 368.9,27.8 369.8,28.0 370.8,28.1 371.7,28.1 372.6,28.3 373.6,28.1 374.5,27.2 375.4,27.4 376.4,25.8 377.3,24.9 378.3,24.3 379.2,23.1 380.1,23.4 381.1,22.6 382.0,22.0 383.0,21.8 383.9,22.6 384.8,23.1 385.8,22.9 386.7,22.3 387.6,22.0 388.6,21.1 389.5,20.5 390.5,20.1 391.4,19.7 392.3,20.1 393.3,19.7 394.2,19.7 395.2,20.0 396.1,20.1 397.0,19.7 398.0,19.2 398.9,18.8 399.9,18.5 400.8,18.0 401.7,17.4 402.7,17.1 403.6,16.6 404.5,16.2 405.5,15.8 406.4,15.8 407.4,15.8 408.3,15.7 409.2,15.2 410.2,15.1 411.1,14.8 412.1,14.6 413.0,14.5 413.9,14.6 414.9,14.5 415.8,14.5 416.7,14.2 417.7,14.3 418.6,14.0 419.6,14.0 420.5,14.3 421.4,14.0 422.4,14.6 423.3,14.9 424.3,15.8 425.2,16.3 426.1,16.5 427.1,16.6 428.0,17.4 428.9,18.6 429.9,20.0 430.8,20.5 431.8,21.8 432.7,22.3 433.6,22.9 434.6,23.5 435.5,24.3 436.5,24.8 437.4,25.4 438.3,26.0 439.3,26.8 440.2,26.9 441.1,27.5 442.1,27.8 443.0,29.1 444.0,29.8 444.9,30.4 445.8,30.9 446.8,32.3 447.7,32.9 448.7,34.0 449.6,34.8 450.5,35.8 451.5,36.6 452.4,37.7 453.4,38.4 454.3,39.7 455.2,40.4 456.2,42.1 457.1,42.7 458.0,44.3 459.0,45.1 459.9,46.1 460.9,47.2 461.8,48.1 462.7,49.0 463.7,50.7 464.6,52.0 465.6,53.4 466.5,54.0 467.4,56.0 468.4,57.2 469.3,59.5 470.2,61.0 471.2,63.2 472.1,64.4 473.1,66.0 474.0,67.2 474.9,70.6 475.9,71.0 476.8,73.3 477.8,75.2 478.7,77.2 479.6,81.5 480.6,84.7 481.5,86.1 482.4,88.6 483.4,89.9 484.3,92.7 485.3,94.6 486.2,97.0 487.1,98.9 488.1,100.7 489.0,101.6 490.0,104.1 490.9,105.6 491.8,108.1 492.8,110.8 493.7,112.1 494.6,114.1 495.6,116.2 496.5,118.5 497.5,121.1 498.4,121.9 499.3,123.6 500.3,124.5 501.2,125.6 502.2,126.5 503.1,127.9 504.0,129.0 505.0,130.4 505.9,131.3 506.9,133.3 507.8,134.8 508.7,135.8 509.7,136.8 510.6,137.9 511.5,139.0 512.5,140.4 513.4,140.8 514.4,141.6 515.3,142.7 516.2,143.9 517.2,144.7 518.1,145.4 519.1,145.7 520.0,146.7 520.9,146.7 521.9,147.3 522.8,146.5 523.7,147.1 524.7,147.9 525.6,148.7 526.6,151.3 527.5,152.2 528.4,154.2 529.4,154.8 530.3,156.7 531.3,157.1 532.2,158.8 533.1,161.0 534.1,161.6 535.0,163.0 535.9,163.6 536.9,163.1 537.8,162.2 538.8,160.7 539.7,160.5 540.6,161.4 541.6,161.0 542.5,160.7 543.5,160.5 544.4,160.0 545.3,161.4 546.3,162.3 547.2,163.3 548.1,164.3 549.1,165.1 550.0,167.0 551.0,168.2 551.9,169.4 552.8,170.6 553.8,171.9 554.7,172.8 555.7,174.0 556.6,175.4 557.5,176.0 558.5,176.6 559.4,177.3 560.4,178.2 561.3,180.3 562.2,182.3 563.2,183.6 564.1,185.9 565.0,187.6 566.0,189.4 566.9,190.9 567.9,192.6 568.8,193.2 569.7,195.6 570.7,196.8 571.6,197.2 572.6,198.6 573.5,198.0 574.4,198.5 575.4,200.6 576.3,201.9 577.2,204.8 578.2,207.2 579.1,204.2 580.1,199.9 581.0,200.8 581.9,196.9 582.9,196.6 583.8,194.6 584.8,195.2 585.7,193.6 586.6,193.4 587.6,192.0 588.5,190.3 589.4,188.8 590.4,187.3 591.3,186.8 592.3,185.7 593.2,184.3 594.1,182.8 595.1,181.4 596.0,179.6 597.0,178.0 597.9,175.9 598.8,173.9 599.8,171.6 600.7,168.8 601.6,167.1 602.6,165.3 603.5,163.9 604.5,162.0 605.4,160.3 606.3,159.0 607.3,158.0 608.2,157.3 609.2,155.7 610.1,154.2 611.0,152.8 612.0,151.9 612.9,150.0 613.9,148.1 614.8,147.1 615.7,147.0 616.7,145.7 617.6,144.4 618.5,142.7 619.5,141.9 620.4,140.8 621.4,139.4 622.3,137.6 623.2,136.8 624.2,135.3 625.1,133.8 626.1,132.4 627.0,130.4 627.9,129.1 628.9,127.1 629.8,125.1 630.7,123.1 631.7,121.0 632.6,120.2 633.6,118.1 634.5,117.2 635.4,115.3 636.4,114.1 637.3,112.1 638.3,110.7 639.2,108.7 640.1,107.6 641.1,105.6 642.0,104.1 642.9,101.8 643.9,100.9 644.8,98.9 645.8,97.9 646.7,95.2 647.6,93.5 648.6,91.5 649.5,90.2 650.5,90.1 651.4,90.4 652.3,89.8 653.3,88.9 654.2,87.2 655.1,85.8 656.1,83.6 657.0,82.9 658.0,81.3 658.9,80.1 659.8,78.4 660.8,77.2 661.7,75.5 662.7,73.8 663.6,73.0 664.5,71.2 665.5,70.7 666.4,70.3 667.4,70.1 668.3,69.2 669.2,67.7 670.2,66.0 671.1,65.3 672.0,64.7 673.0,62.9 673.9,63.5 674.9,62.1 675.8,61.5 676.7,59.3 677.7,59.0 678.6,57.8 679.6,57.0 680.5,57.4 681.4,55.8 682.4,55.2 683.3,56.1 684.2,56.0 685.2,56.4 686.1,56.6 687.1,56.7 688.0,56.9" fill="none" stroke="#1f77b4" stroke-width="1.5"/>
<rect x="530" y="16" width="10" height="10" fill="#1f77b4"/>
<text x="544" y="25" font-size="9">konum hatası (m)</text>
</svg>